<svg
        xmlns="http://www.w3.org/2000/svg"
        xmlns:xlink="http://www.w3.org/1999/xlink"
        width="20px" height="19px">
    <defs>
        <filter id="Filter_0">
            <feFlood flood-color="rgb(75, 83, 107)" flood-opacity="1" result="floodOut" />
            <feComposite operator="atop" in="floodOut" in2="SourceGraphic" result="compOut" />
            <feBlend mode="normal" in="compOut" in2="SourceGraphic" />
        </filter>

    </defs>
    <g filter="url(#Filter_0)">
        <path fill-rule="evenodd"  fill="rgb(189, 195, 199)"
              d="M5.335,18.302 C7.055,17.487 10.050,16.067 10.050,16.067 C10.050,16.067 12.993,17.448 14.865,18.327 C14.258,18.042 16.431,19.568 16.230,17.451 C16.038,15.415 15.729,12.145 15.729,12.145 C15.729,12.145 17.876,9.754 19.217,8.261 C18.657,8.884 20.757,7.182 18.802,6.813 C16.825,6.441 13.282,6.179 13.282,6.179 C13.282,6.179 11.873,2.924 10.833,1.124 C11.317,1.962 10.284,-0.727 9.246,1.085 C8.214,2.885 6.702,6.193 6.702,6.193 C6.702,6.193 3.266,6.461 1.288,6.840 C2.063,6.692 -0.522,6.760 0.791,8.215 C2.131,9.698 4.361,12.168 4.361,12.168 C4.361,12.168 4.063,15.452 3.877,17.487 C3.925,16.961 3.201,19.313 5.335,18.302 Z"/>
    </g>
</svg>